<?xml version="1.0" encoding="utf-8"?>
<!-- Generator: Adobe Illustrator 23.0.1, SVG Export Plug-In . SVG Version: 6.00 Build 0)  -->
<svg version="1.1"
	 id="Calque_1" xmlns:cc="http://creativecommons.org/ns#" xmlns:dc="http://purl.org/dc/elements/1.1/" xmlns:inkscape="http://www.inkscape.org/namespaces/inkscape" xmlns:rdf="http://www.w3.org/1999/02/22-rdf-syntax-ns#" xmlns:sodipodi="http://sodipodi.sourceforge.net/DTD/sodipodi-0.dtd" xmlns:svg="http://www.w3.org/2000/svg"
	 xmlns="http://www.w3.org/2000/svg" xmlns:xlink="http://www.w3.org/1999/xlink" x="0px" y="0px" viewBox="0 0 32 40"
	 style="enable-background:new 0 0 32 40;" xml:space="preserve">
<style type="text/css">
	.st0{fill-rule:evenodd;clip-rule:evenodd;}
</style>
<g transform="translate(0,-1020.3622)">
	<path class="st0" d="M29.5,1031.8c-0.3,0-0.5,0.2-0.5,0.5v4.5c0,0.3,0.2,0.5,0.5,0.5c0.3,0,0.5-0.2,0.5-0.5c0,0,0,0,0,0v-4.5
		C30,1032.1,29.8,1031.9,29.5,1031.8C29.5,1031.8,29.5,1031.8,29.5,1031.8z"/>
	<path class="st0" d="M27.8,1034.1c-0.3,0-0.5,0.2-0.5,0.5c0,0.3,0.2,0.5,0.5,0.5c0,0,0,0,0,0H30c0.3,0,0.5-0.2,0.5-0.5
		c0-0.3-0.2-0.5-0.5-0.5c0,0,0,0,0,0H27.8z"/>
	<path class="st0" d="M3,1028.9c-0.5,0-1,0.5-1,1v2.5c0,0.3,0.2,0.5,0.5,0.5H15c0.1,0,0.2,0,0.3-0.1l1-0.8c0.9-0.7,2-1.1,3.1-1.1
		h0.4c0.7,0,1.4,0.1,2,0.4l3.4,1.5c0.1,0,0.1,0,0.2,0h1c0.3,0,0.5,0.2,0.5,0.5v1.5c0,0.8-0.7,1.5-1.5,1.5H21v1h4.5
		c1.4,0,2.5-1.1,2.5-2.5v-1.5c0-0.8-0.7-1.5-1.5-1.5h-0.9l-3.3-1.5c-0.8-0.3-1.6-0.5-2.4-0.5h-0.4c-1.4,0-2.7,0.5-3.7,1.3l-0.9,0.7
		H6.8l-1.8-2.4c-0.3-0.4-0.7-0.6-1.2-0.6H3z M3,1029.9h0.8c0.2,0,0.3,0.1,0.4,0.2l1.3,1.8H3V1029.9z"/>
	<path class="st0" d="M25.4,1031.9l-2.8,0.5c-0.8,0.1-1.5,0.2-2.3,0.2h-1.4c-1.3,0-2.7-0.2-4-0.6l-0.2-0.1l-0.3,0.9l0.2,0.1
		c1.4,0.5,2.8,0.7,4.3,0.7h1.4c0.8,0,1.7-0.1,2.5-0.2l2.8-0.5L25.4,1031.9z"/>
	<path class="st0" d="M16.5,1034.9c-0.3,0-0.5,0.2-0.5,0.5v8.5c0,0.3,0.2,0.5,0.5,0.5H20c0.2,0,0.5-0.2,0.5-0.4l1-7c0,0,0,0,0-0.1
		v-1.5c0-0.3-0.2-0.5-0.5-0.5L16.5,1034.9z M17,1035.9h3.5v1l-0.9,6.5H17V1035.9z"/>
	<path class="st0" d="M2.9,1032.1l-0.8,0.6l0.5,0.8c1.3,2,3.6,3.3,6,3.5l7.9,0.5l0.1-1l-7.9-0.5c-2.1-0.1-4-1.3-5.2-3L2.9,1032.1z"
		/>
	<path class="st0" d="M2,1033.6c-0.3,0-0.5,0.2-0.5,0.5s0.2,0.5,0.5,0.5c0,0,0,0,0,0h3.5c0.3,0,0.5-0.2,0.5-0.5s-0.2-0.5-0.5-0.5
		c0,0,0,0,0,0H2z"/>
</g>
</svg>
