<?xml version="1.0" encoding="iso-8859-1"?>
<!-- Generator: Adobe Illustrator 19.0.0, SVG Export Plug-In . SVG Version: 6.00 Build 0)  -->
<svg version="1.1" id="Layer_1" xmlns="http://www.w3.org/2000/svg" xmlns:xlink="http://www.w3.org/1999/xlink" x="0px" y="0px"
	 viewBox="0 0 390.691 390.691" style="enable-background:new 0 0 390.691 390.691;" xml:space="preserve">
<g>
	<g>
		<path d="M314.345,161.345c-42.036,0-76.346,34.309-76.346,76.346c0,42.036,34.309,76.346,76.346,76.346
			s76.346-34.309,76.346-76.346C390.691,195.654,356.382,161.345,314.345,161.345z M314.345,308.163
			c-38.636,0-70.163-31.527-70.163-70.163c0-38.636,31.527-70.163,70.163-70.163c38.637,0,70.163,31.527,70.163,70.163
			S352.981,308.163,314.345,308.163z"/>
	</g>
</g>
<g>
	<g>
		<path d="M112.818,76.655h-7.109c-7.418,0-13.909,2.164-18.545,6.8c-4.327,4.018-6.491,9.582-6.491,15.454
			c0,10.509,7.727,21.327,22.564,22.873L73.255,237.073c-0.618,1.545,0.618,3.4,2.164,3.709c0.309,0,0.618,0,0.927,0
			c1.546,0,2.782-0.927,3.09-1.546l30.909-119c0.309-0.927,0-2.164-0.618-2.782c-0.618-0.928-1.546-1.237-2.473-1.237
			c-13.909,0-20.4-8.964-20.4-17c0-4.327,1.546-8.345,4.636-11.127c3.4-3.4,8.345-5.254,14.218-5.254h7.109
			c1.854,0,3.091-1.237,3.091-3.091S114.673,76.655,112.818,76.655z"/>
	</g>
</g>
<g>
	<g>
		<path d="M264.582,94.581c-1.546-0.618-3.4,0-4.018,1.546l-59.654,120.855c-0.618,1.546,0,3.4,1.546,4.018
			c0.31,0.309,0.928,0.309,1.237,0.309c1.236,0,2.163-0.618,2.782-1.855l59.654-120.855
			C266.746,97.054,266.128,95.199,264.582,94.581z"/>
	</g>
</g>
<g>
	<g>
		<path d="M274.164,81.908h-41.727c-5.254,0-9.273,4.327-9.273,9.273c0,5.254,4.327,9.273,9.273,9.273h41.727
			c4.945,0,9.273-4.018,9.273-9.273C283.437,85.927,279.109,81.908,274.164,81.908z M274.164,94.581h-41.727
			c-1.854,0-3.091-1.545-3.091-3.091c0-1.854,1.545-3.091,3.091-3.091h41.727c1.854,0,3.091,1.545,3.091,3.091
			C277.254,93.344,275.709,94.581,274.164,94.581z"/>
	</g>
</g>
<g>
	<g>
		<path d="M365.653,199.672c-0.928-1.236-3.091-1.546-4.327-0.618c-1.236,0.928-1.545,3.091-0.618,4.327
			c7.418,9.891,11.437,21.946,11.437,34.309c0,31.836-25.964,57.8-57.8,57.8s-57.8-25.964-57.8-57.8c0-31.836,25.963-57.8,57.8-57.8
			c12.364,0,24.109,3.709,34,11.127c1.237,0.928,3.4,0.619,4.327-0.618c0.928-1.237,0.619-3.4-0.618-4.327
			c-11.127-8.036-24.109-12.364-37.709-12.364c-35.236,0-63.982,28.746-63.982,63.982c0,35.236,28.746,63.982,63.982,63.982
			c35.237,0,63.673-28.746,63.672-63.982C378.017,223.781,373.69,210.799,365.653,199.672z"/>
	</g>
</g>
<g>
	<g>
		<path d="M127.654,199.672c-0.928-1.236-3.091-1.546-4.327-0.618c-1.236,0.928-1.545,3.091-0.618,4.327
			c7.418,9.891,11.437,21.946,11.437,34.309c0,31.836-25.964,57.8-57.8,57.8c-31.836,0-57.8-25.964-57.8-57.8
			c0-31.836,25.963-57.8,57.8-57.8c12.364,0,24.109,3.709,34,11.127c1.237,0.928,3.4,0.619,4.327-0.618
			c0.928-1.237,0.619-3.4-0.618-4.327c-11.127-8.036-24.109-12.364-37.709-12.364c-35.236,0-63.982,28.746-63.982,63.982
			c0,35.236,28.746,63.982,63.982,63.982s63.982-28.746,63.672-63.982C140.017,223.781,135.69,210.799,127.654,199.672z"/>
	</g>
</g>
<g>
	<g>
		<path d="M76.346,161.345C34.309,161.345,0,195.654,0,237.691c0,42.036,34.309,76.346,76.346,76.346s76.346-34.309,76.346-76.346
			C152.691,195.654,118.382,161.345,76.346,161.345z M76.346,308.163c-38.636,0-70.163-31.527-70.163-70.163
			c0-38.636,31.527-70.163,70.163-70.163s70.163,31.527,70.163,70.163S114.982,308.163,76.346,308.163z"/>
	</g>
</g>
<g>
	<g>
		<path d="M317.436,236.455l-62.436-119c-0.618-0.928-1.545-1.546-2.782-1.546H106.636c-1.236,0-2.164,0.618-2.782,1.546
			c-0.309,0.927-0.309,2.163,0.309,3.091l73.564,102.927c0.928,1.236,2.782,1.546,4.327,0.618c1.236-0.928,1.545-3.091,0.618-4.327
			l-70.163-97.981h137.546L309.092,234.6h-92.419c-1.854,0-3.091,1.237-3.091,3.091s1.236,3.091,3.091,3.091h97.672
			c0.928,0,2.473-0.309,3.091-1.236C318.054,238.619,318.054,237.382,317.436,236.455z"/>
	</g>
</g>
<g>
	<g>
		<path d="M314.345,225.327c-6.8,0-12.364,5.563-12.364,12.364c0,6.8,5.563,12.364,12.364,12.364c6.8,0,12.364-5.563,12.364-12.364
			C326.709,230.891,321.146,225.327,314.345,225.327z M314.345,243.873c-3.4,0-6.182-2.781-6.182-6.182s2.782-6.182,6.182-6.182
			c3.4,0,6.182,2.781,6.182,6.182C320.528,241.091,317.745,243.873,314.345,243.873z"/>
	</g>
</g>
<g>
	<g>
		<path d="M76.346,225.327c-6.8,0-12.364,5.563-12.364,12.364c0,6.8,5.563,12.364,12.364,12.364s12.364-5.563,12.364-12.364
			C88.709,230.891,83.146,225.327,76.346,225.327z M76.346,243.873c-3.4,0-6.182-2.781-6.182-6.182s2.782-6.182,6.182-6.182
			c3.4,0,6.182,2.781,6.182,6.182C82.528,241.091,79.745,243.873,76.346,243.873z"/>
	</g>
</g>
<g>
	<g>
		<path d="M195.036,212.964c-13.6,0-24.727,11.127-24.727,24.727c0,13.6,11.127,24.727,24.727,24.727
			c13.6,0,24.727-11.128,24.727-24.727C219.764,224.091,208.637,212.964,195.036,212.964z M195.036,256.546
			c-10.201,0-18.546-8.345-18.546-18.546s8.346-18.546,18.546-18.546c10.2,0,18.546,8.345,18.546,18.546
			S205.237,256.546,195.036,256.546z"/>
	</g>
</g>
<g>
	<g>
		<path d="M195.036,225.945c-6.491,0-11.746,5.255-11.746,11.746c0,6.491,5.255,11.746,11.746,11.746
			c6.491,0,11.746-5.254,11.746-11.746C206.782,231.199,201.528,225.945,195.036,225.945z M195.036,243.254
			c-3.091,0-5.563-2.473-5.563-5.563c0-3.091,2.473-5.563,5.563-5.563s5.563,2.473,5.563,5.563S198.127,243.254,195.036,243.254z"/>
	</g>
</g>
<g>
	<g>
		<path d="M195.345,234.599c-1.854,0-3.091,1.236-3.091,3.091v33.691c0,1.854,1.236,3.091,3.091,3.091s3.091-1.545,3.091-3.091
			V237.69C198.436,235.836,197.2,234.599,195.345,234.599z"/>
	</g>
</g>
<g>
	<g>
		<path d="M195.345,191.946c-1.854,0-3.091,1.236-3.091,3.091v21.328c0,1.854,1.236,3.091,3.091,3.091s3.091-1.237,3.091-3.091
			v-21.328C198.436,193.182,197.2,191.946,195.345,191.946z"/>
	</g>
</g>
<g>
	<g>
		<path d="M195.345,267.982h-27.509c-1.854,0-3.091,1.236-3.091,3.091v9.273c0,1.854,1.236,3.091,3.091,3.091h27.509
			c1.855,0,3.091-1.236,3.091-3.091v-9.273C198.436,269.218,197.2,267.982,195.345,267.982z M192.255,277.254h-21.328v-3.091h21.328
			V277.254z"/>
	</g>
</g>
<g>
	<g>
		<path d="M222.854,191.946h-27.509c-1.854,0-3.091,1.236-3.091,3.091v9.273c0,1.854,1.236,3.091,3.091,3.091h27.509
			c1.546,0,3.091-1.546,3.091-3.091v-9.273C225.945,193.182,224.709,191.946,222.854,191.946z M219.764,201.218h-21.328v-3.091
			h21.328V201.218z"/>
	</g>
</g>
<g>
	<g>
		<path d="M314.654,225.328l-119.309-12.364c-1.545,0-3.091,0.927-3.4,2.782c0,1.854,1.236,3.091,2.782,3.4l119.618,12.364
			c1.546,0,2.782-0.928,3.091-2.782C317.436,226.874,316.2,225.637,314.654,225.328z"/>
	</g>
</g>
<g>
	<g>
		<path d="M317.436,246.655c-0.309-1.854-1.854-2.782-3.4-2.782l-119.309,12.364c-1.855,0.309-3.091,1.855-2.782,3.4
			s1.545,2.782,3.091,2.782l119.618-12.364C316.509,249.745,317.745,248.2,317.436,246.655z"/>
	</g>
</g>
<g>
</g>
<g>
</g>
<g>
</g>
<g>
</g>
<g>
</g>
<g>
</g>
<g>
</g>
<g>
</g>
<g>
</g>
<g>
</g>
<g>
</g>
<g>
</g>
<g>
</g>
<g>
</g>
<g>
</g>
</svg>
