<?xml version="1.0" encoding="iso-8859-1"?>
<!-- Generator: Adobe Illustrator 16.0.0, SVG Export Plug-In . SVG Version: 6.00 Build 0)  -->
<!DOCTYPE svg PUBLIC "-//W3C//DTD SVG 1.1//EN" "http://www.w3.org/Graphics/SVG/1.1/DTD/svg11.dtd">
<svg version="1.1" id="Capa_1" xmlns="http://www.w3.org/2000/svg" xmlns:xlink="http://www.w3.org/1999/xlink" x="0px" y="0px"
	 width="15px" height="15px" fill="white" viewBox="0 0 33 33" style="enable-background:new 0 0 33 33;" xml:space="preserve">
<g>
	<g>
		<path d="M28.5,0h-24C2.019,0,0,2.019,0,4.5v24C0,30.98,2.019,33,4.5,33h24c2.48,0,4.5-2.02,4.5-4.5v-24C33,2.019,30.98,0,28.5,0z
			 M31.5,28.5c0,1.648-1.35,3-3,3h-24c-1.65,0-3-1.352-3-3v-24c0-1.649,1.35-3,3-3h24c1.65,0,3,1.351,3,3V28.5z"/>
		<path d="M8.681,6.047h15.637c0.388,0,0.705-0.317,0.705-0.705V4.205c0-0.388-0.316-0.705-0.705-0.705H8.681
			c-0.387,0-0.705,0.317-0.705,0.705v1.137C7.977,5.729,8.294,6.047,8.681,6.047z"/>
		<rect x="4.116" y="10.609" width="2.262" height="2.262"/>
		<rect x="7.331" y="10.609" width="2.263" height="2.262"/>
		<rect x="10.546" y="10.609" width="2.263" height="2.262"/>
		<rect x="13.761" y="10.609" width="2.263" height="2.262"/>
		<rect x="16.977" y="10.609" width="2.263" height="2.262"/>
		<rect x="20.191" y="10.609" width="2.263" height="2.262"/>
		<rect x="23.406" y="10.609" width="2.263" height="2.262"/>
		<rect x="26.622" y="10.609" width="2.262" height="2.262"/>
		<rect x="4.116" y="13.824" width="2.262" height="2.264"/>
		<rect x="7.331" y="13.824" width="2.263" height="2.264"/>
		<rect x="10.546" y="13.824" width="2.263" height="2.264"/>
		<rect x="13.761" y="13.824" width="2.263" height="2.264"/>
		<rect x="16.977" y="13.824" width="2.263" height="2.264"/>
		<rect x="20.191" y="13.824" width="2.263" height="2.264"/>
		<rect x="23.406" y="13.824" width="2.263" height="2.264"/>
		<rect x="26.622" y="13.824" width="2.262" height="2.264"/>
		<rect x="4.116" y="17.039" width="2.262" height="2.264"/>
		<rect x="7.331" y="17.039" width="2.263" height="2.264"/>
		<rect x="10.546" y="17.039" width="2.263" height="2.264"/>
		<rect x="13.761" y="17.039" width="2.263" height="2.264"/>
		<rect x="16.977" y="17.039" width="2.263" height="2.264"/>
		<rect x="20.191" y="17.039" width="2.263" height="2.264"/>
		<rect x="23.406" y="17.039" width="2.263" height="2.264"/>
		<rect x="26.622" y="17.039" width="2.262" height="2.264"/>
		<rect x="4.116" y="20.254" width="2.262" height="2.264"/>
		<rect x="7.331" y="20.254" width="2.263" height="2.264"/>
		<rect x="10.546" y="20.254" width="2.263" height="2.264"/>
		<rect x="13.761" y="20.254" width="2.263" height="2.264"/>
		<rect x="16.977" y="20.254" width="2.263" height="2.264"/>
		<rect x="20.191" y="20.254" width="2.263" height="2.264"/>
		<rect x="23.406" y="20.254" width="2.263" height="2.264"/>
		<rect x="26.622" y="20.254" width="2.262" height="2.264"/>
		<rect x="4.116" y="23.469" width="2.262" height="2.264"/>
		<rect x="7.331" y="23.469" width="2.263" height="2.264"/>
		<rect x="10.546" y="23.469" width="2.263" height="2.264"/>
		<rect x="13.761" y="23.469" width="2.263" height="2.264"/>
		<rect x="16.977" y="23.469" width="2.263" height="2.264"/>
		<rect x="20.191" y="23.469" width="2.263" height="2.264"/>
		<rect x="23.406" y="23.469" width="2.263" height="2.264"/>
		<rect x="26.622" y="23.469" width="2.262" height="2.264"/>
		<rect x="4.116" y="26.686" width="2.262" height="2.263"/>
		<rect x="7.331" y="26.686" width="2.263" height="2.263"/>
		<rect x="10.546" y="26.686" width="2.263" height="2.263"/>
		<rect x="13.761" y="26.686" width="2.263" height="2.263"/>
		<rect x="16.977" y="26.686" width="2.263" height="2.263"/>
		<rect x="20.191" y="26.686" width="2.263" height="2.263"/>
		<rect x="23.406" y="26.686" width="2.263" height="2.263"/>
		<rect x="26.622" y="26.686" width="2.262" height="2.263"/>
	</g>
</g>
<g>
</g>
<g>
</g>
<g>
</g>
<g>
</g>
<g>
</g>
<g>
</g>
<g>
</g>
<g>
</g>
<g>
</g>
<g>
</g>
<g>
</g>
<g>
</g>
<g>
</g>
<g>
</g>
<g>
</g>
</svg>
