<?xml version="1.0" encoding="utf-8"?>
<!-- Generator: Adobe Illustrator 23.0.1, SVG Export Plug-In . SVG Version: 6.00 Build 0)  -->
<svg version="1.1" id="Calque_1" xmlns="http://www.w3.org/2000/svg" xmlns:xlink="http://www.w3.org/1999/xlink" x="0px" y="0px"
	 viewBox="0 0 100 125" style="enable-background:new 0 0 100 125;" xml:space="preserve">
<g>
	<path d="M0.3,65v27.4c0,3.6,3,6.6,6.6,6.6c3.6,0,6.6-3,6.6-6.6v-3.8h72.9v3.8c0,3.6,3,6.6,6.6,6.6c3.6,0,6.6-3,6.6-6.6V65H0.3z"/>
	<path d="M80.9,46.8h7.9l0-12.8v-4.9v-3.6c0-2.8-2.3-5.1-5.1-5.1c-2.8,0-5.1,2.3-5.1,5.1v2.9H54.3h-3.7H21.5v-2.9
		c0-2.8-2.3-5.1-5.1-5.1c-2.8,0-5.1,2.3-5.1,5.1v3.6V34l0,12.8h7.9c0,0,0,0,0,0v-7.2c0-2.2,1.7-3.9,3.9-3.9h18.8
		c2.2,0,3.9,1.7,3.9,3.9v7.2c0,0,0,0,0,0h4.8h3.6h0.1l0-7.5c0.2-2,1.8-3.6,3.8-3.6H77c2.1,0,3.9,1.7,3.9,3.9L80.9,46.8
		C80.9,46.7,80.9,46.8,80.9,46.8z"/>
</g>
</svg>
