<?xml version="1.0" encoding="utf-8"?>
<!-- Generator: Adobe Illustrator 23.0.1, SVG Export Plug-In . SVG Version: 6.00 Build 0)  -->
<svg version="1.1" id="Calque_1" xmlns="http://www.w3.org/2000/svg" xmlns:xlink="http://www.w3.org/1999/xlink" x="0px" y="0px"
	 viewBox="0 0 100 125" style="enable-background:new 0 0 100 125;" xml:space="preserve">
<g>
	<path d="M20.3,65v27.4c0,3.6,3,6.6,6.6,6.6c3.6,0,6.6-3,6.6-6.6v-3.8h39.7v3.8c0,3.6,3,6.6,6.6,6.6c3.6,0,6.6-3,6.6-6.6V65H20.3z"
		/>
	<path d="M39.2,46.8C39.2,46.8,39.2,46.7,39.2,46.8l0-7.2c0-2.2,1.7-3.9,3.9-3.9h18.8c2.1,0,3.9,1.7,3.9,3.9v7.2c0,0,0,0,0,0h0.7v0
		h7.9v0l0,0l0-7.5l0-9.2v-0.8v-3.6c0-2.8-2.3-5.1-5.1-5.1c-2.8,0-5.1,2.3-5.1,5.1v2.9h-0.6h-22v-2.9c0-2.8-2.3-5.1-5.1-5.1
		c-2.8,0-5.1,2.3-5.1,5.1v3.6V34l0,12.8H39.2z"/>
</g>
</svg>
