<?xml version="1.0" encoding="iso-8859-1"?>
<!-- Generator: Adobe Illustrator 19.0.0, SVG Export Plug-In . SVG Version: 6.00 Build 0)  -->
<svg xmlns="http://www.w3.org/2000/svg" xmlns:xlink="http://www.w3.org/1999/xlink" version="1.1" id="Capa_1" x="0px" y="0px" viewBox="0 0 512.002 512.002" style="enable-background:new 0 0 512.002 512.002;" xml:space="preserve" width="512" height="512">
<g>
	<path d="M243.373,497.385l-24.872-8.29V360h22.5c4.143,0,7.5-3.357,7.5-7.5v-50.335c0-13.905-4.287-27.386-12.191-38.677   c7.823-7.793,12.191-17.171,12.191-26.532V192.5c0-15.163-12.337-27.5-27.5-27.5h-80c-12.563,0-23.178,8.472-26.452,20H78.501   v-42.5c0-4.143-3.357-7.5-7.5-7.5s-7.5,3.357-7.5,7.5V155h-7.5c-12.406,0-22.5,10.094-22.5,22.5s10.094,22.5,22.5,22.5h7.5v207   h-32.5c-12.406,0-22.5,10.094-22.5,22.5s10.094,22.5,22.5,22.5h25c12.406,0,22.5-10.094,22.5-22.5V200h35v36.956   c0,9.35,4.362,18.728,12.174,26.53c-7.894,11.301-12.174,24.783-12.174,38.679V352.5c0,4.143,3.357,7.5,7.5,7.5h22.5v129.095   l-24.872,8.29c-3.929,1.31-6.053,5.558-4.743,9.487c1.048,3.143,3.974,5.13,7.114,5.13c0.786,0,1.586-0.125,2.373-0.387l30-10   c3.063-1.021,5.128-3.887,5.128-7.115V360h45v134.5c0,3.229,2.065,6.095,5.128,7.115l30,10c0.787,0.262,1.587,0.387,2.373,0.387   c3.141,0,6.066-1.987,7.114-5.13C249.426,502.942,247.302,498.694,243.373,497.385z M63.501,429.5c0,4.136-3.364,7.5-7.5,7.5h-25   c-4.136,0-7.5-3.364-7.5-7.5s3.364-7.5,7.5-7.5h32.5V429.5z M56.001,185c-4.136,0-7.5-3.364-7.5-7.5s3.364-7.5,7.5-7.5h7.5v15   H56.001z M141.001,180h80c6.893,0,12.5,5.607,12.5,12.5v44.456c0,8.158-6.152,14.687-10.185,18.094h-84.653   c-4.026-3.415-10.161-9.951-10.161-18.094V192.5C128.501,185.607,134.108,180,141.001,180z M128.501,302.165   c0-11.654,3.883-22.929,10.975-32.115h83.025c7.109,9.174,11,20.449,11,32.115V345h-105V302.165z"/>
	<path d="M331.001,150c28.948,0,52.5-23.552,52.5-52.5v-45c0-28.948-23.552-52.5-52.5-52.5s-52.5,23.552-52.5,52.5v45   C278.501,126.448,302.053,150,331.001,150z M293.501,52.5c0-20.678,16.822-37.5,37.5-37.5s37.5,16.822,37.5,37.5v8.308   C358.964,51.063,345.68,45,331.001,45s-27.963,6.063-37.5,15.808V52.5z M349.689,65.009C345.577,71.14,338.61,75,331.001,75   s-14.576-3.86-18.688-9.991C317.819,61.83,324.198,60,331.001,60S344.183,61.83,349.689,65.009z M301.016,75.007   C307.978,84.261,319.017,90,331.001,90s23.023-5.739,29.985-14.993c4.716,6.271,7.515,14.061,7.515,22.493   c0,20.678-16.822,37.5-37.5,37.5s-37.5-16.822-37.5-37.5C293.501,89.067,296.3,81.277,301.016,75.007z"/>
	<path d="M254.793,110.219c-0.682-3.458-2.175-6.698-4.415-9.536c0,0-29.141-36.883-29.324-37.07   C211.416,52.239,197.041,45,181.001,45c-16.041,0-40.412,18.998-40.577,19.208l-28.8,36.476c-2.24,2.837-3.733,6.077-4.415,9.535   c-5.455,4.211-8.708,10.7-8.708,17.77c0,12.343,9.883,22.012,22.5,22.012h120c12.617,0,22.5-9.669,22.5-22.012   C263.501,120.919,260.248,114.43,254.793,110.219z M181.001,135c-20.678,0-37.5-16.822-37.5-37.5c0-5.237,1.083-10.224,3.03-14.756   c1.719,1.437,3.659,2.627,5.772,3.506c4.716,1.952,9.924,2.208,14.747,0.839c3.931,3.106,8.843,4.861,13.951,4.861   s10.021-1.755,13.951-4.861c4.824,1.368,10.037,1.109,14.761-0.844c2.107-0.877,4.042-2.065,5.759-3.5   c1.947,4.531,3.029,9.518,3.029,14.754C218.501,118.178,201.679,135,181.001,135z M206.799,70.323   c-0.755,0.892-1.718,1.603-2.836,2.068c-2.249,0.931-4.738,0.722-6.832-0.576l-5.958-3.69l-4.086,5.693   c-1.428,1.991-3.646,3.133-6.086,3.133s-4.658-1.142-6.086-3.133l-4.086-5.693l-5.958,3.69c-2.093,1.297-4.584,1.508-6.818,0.581   c-1.126-0.468-2.093-1.18-2.849-2.073C161.931,63.933,171.013,60,181.001,60C190.99,60,200.071,63.933,206.799,70.323z    M121.001,135c-4.275,0-7.5-3.015-7.5-7.012c0-2.844,1.59-5.41,4.149-6.696c2.531-1.271,4.13-3.86,4.133-6.692   c0.002-2.133,0.879-3.691,1.614-4.622l5.409-6.851c1.331,12.431,7.02,23.571,15.503,31.873H121.001z M241.001,135h-23.308   c8.483-8.302,14.172-19.443,15.503-31.874l5.409,6.85c0.735,0.932,1.612,2.49,1.614,4.623c0.003,2.832,1.602,5.421,4.133,6.692   c2.56,1.286,4.149,3.853,4.149,6.696C248.501,131.985,245.276,135,241.001,135z"/>
	<path d="M481.001,407h-32.5V200h7.5c12.406,0,22.5-10.094,22.5-22.5s-10.094-22.5-22.5-22.5h-7.5v-12.5c0-4.143-3.357-7.5-7.5-7.5   s-7.5,3.357-7.5,7.5V185h-36.048c-3.274-11.528-13.889-20-26.452-20h-80c-15.163,0-27.5,12.337-27.5,27.5v29.429   c0,0.331,0.021,0.662,0.065,0.991c1.44,10.803,6.817,20.857,14.935,28.119V391.5c0,9.777,6.271,18.114,15,21.21v76.385   l-24.872,8.29c-3.93,1.31-6.053,5.558-4.743,9.487c1.048,3.143,3.974,5.13,7.114,5.13c0.786,0,1.586-0.125,2.373-0.387l30-10   c3.063-1.021,5.128-3.887,5.128-7.115v-81.79c8.729-3.096,15-11.433,15-21.21v-47.036c4.951,0.713,10.049,0.713,15,0V391.5   c0,9.777,6.271,18.114,15,21.21v81.79c0,3.229,2.065,6.095,5.128,7.115l30,10c0.787,0.262,1.587,0.387,2.373,0.387   c3.14,0,6.066-1.987,7.114-5.13c1.31-3.93-0.813-8.178-4.743-9.487l-24.872-8.29V412.71c8.729-3.096,15-11.433,15-21.21V251.039   c8.117-7.262,13.494-17.316,14.935-28.119c0.044-0.329,0.065-0.66,0.065-0.991V200h35v229.5c0,12.406,10.094,22.5,22.5,22.5h25   c12.406,0,22.5-10.094,22.5-22.5S493.407,407,481.001,407z M361.001,399c-4.136,0-7.5-3.364-7.5-7.5v-56.571   c0-2.435-1.182-4.718-3.17-6.124c-1.283-0.907-2.8-1.376-4.331-1.376c-0.84,0-1.686,0.142-2.499,0.429   c-8.043,2.844-16.957,2.844-25,0c-2.297-0.81-4.843-0.458-6.83,0.947c-1.988,1.406-3.17,3.689-3.17,6.124V391.5   c0,4.136-3.364,7.5-7.5,7.5s-7.5-3.364-7.5-7.5V300h75v91.5C368.501,395.636,365.137,399,361.001,399z M383.501,221.403   c-1.186,7.941-5.542,15.245-12.005,20.101c-1.886,1.416-2.995,3.638-2.995,5.996V285h-75v-37.5c0-2.358-1.109-4.58-2.995-5.996   c-6.463-4.855-10.819-12.16-12.005-20.101V192.5c0-6.893,5.607-12.5,12.5-12.5h80c6.893,0,12.5,5.607,12.5,12.5V221.403z    M448.501,170h7.5c4.136,0,7.5,3.364,7.5,7.5s-3.364,7.5-7.5,7.5h-7.5V170z M481.001,437h-25c-4.136,0-7.5-3.364-7.5-7.5V422h32.5   c4.136,0,7.5,3.364,7.5,7.5S485.137,437,481.001,437z"/>
	<path d="M468.501,467c-12.406,0-22.5,10.094-22.5,22.5s10.094,22.5,22.5,22.5s22.5-10.094,22.5-22.5S480.907,467,468.501,467z    M468.501,497c-4.136,0-7.5-3.364-7.5-7.5s3.364-7.5,7.5-7.5s7.5,3.364,7.5,7.5S472.637,497,468.501,497z"/>
</g>















</svg>
