<?xml version="1.0" encoding="utf-8"?>
<!-- Generator: Adobe Illustrator 23.0.1, SVG Export Plug-In . SVG Version: 6.00 Build 0)  -->
<svg version="1.1" id="Calque_1" xmlns="http://www.w3.org/2000/svg" xmlns:xlink="http://www.w3.org/1999/xlink" x="0px" y="0px"
	 viewBox="0 0 100 125" style="enable-background:new 0 0 100 125;" xml:space="preserve">
<g>
	<path d="M52.2,33H43v15h9c2.5,0,4.5-0.5,5.8-1.7c1.3-1.3,2-3,2-5.3c0-2.5-0.7-4.4-2-5.9C56.4,33.6,54.5,33,52.2,33z"/>
	<path d="M83,3H15.3C8.1,3,2,9,2,16.2V84c0,7.2,6.1,13,13.3,13H83c7.2,0,13-5.8,13-13V16.2C96,9,90.2,3,83,3z M67.4,53.5
		c-3.8,3.2-9,4.5-15.6,4.5H43v19H30V23h22c4.1,0,7.8,0.6,11,2.1c3.2,1.5,5.7,3.6,7.4,6.4c1.7,2.8,2.6,5.9,2.6,9.4
		C73,46.2,71.1,50.3,67.4,53.5z"/>
</g>
</svg>
