<?xml version="1.0" encoding="utf-8"?>
<!-- Generator: Adobe Illustrator 23.0.1, SVG Export Plug-In . SVG Version: 6.00 Build 0)  -->
<svg version="1.1" id="Calque_1" xmlns="http://www.w3.org/2000/svg" xmlns:xlink="http://www.w3.org/1999/xlink" x="0px" y="0px"
	 viewBox="0 0 100 125" style="enable-background:new 0 0 100 125;" xml:space="preserve">
<path d="M71.4,31l0.5-2.1c0.1-0.5-0.2-1.1-0.7-1.2c-0.5-0.1-1.1,0.2-1.2,0.7l-0.5,2.1c-12.4-2.7-24.4,2.9-28.2,13.3
	c-0.1,0.3-0.1,0.6,0.1,0.9c0.2,0.3,0.5,0.4,0.8,0.4c1,0,2,0.1,2.9,0.4h0c4,1,7.1,3.9,8,7.4c0.1,0.4,0.4,0.6,0.7,0.7
	c0.4,0.1,0.7,0,1-0.3c2.4-2.6,6.3-2.5,9.4-1.9l-6,23.4C30,73.5,11,79.6,10.8,79.7c-0.5,0.2-0.8,0.7-0.6,1.3c0.2,0.5,0.7,0.8,1.3,0.6
	c0.2-0.1,18.8-6,46.3-4.6l-3,11.7c-0.1,0.5,0.2,1.1,0.7,1.2c0.1,0,0.2,0,0.2,0c0.4,0,0.9-0.3,1-0.8l3.1-12.1
	c8.9,0.6,18.6,1.9,28.9,4.5c0.1,0,0.2,0,0.2,0c0.4,0,0.9-0.3,1-0.8c0.1-0.5-0.2-1.1-0.7-1.2c-10.3-2.5-20-3.9-28.9-4.5l5.9-23.1
	c3.1,0.9,6.6,2.8,7.4,6.3c0.1,0.4,0.4,0.6,0.7,0.7c0.1,0,0.2,0,0.2,0c0.3,0,0.6-0.1,0.7-0.3c2.5-2.7,6.7-3.8,10.7-2.8
	c0.9,0.2,1.7,0.5,2.5,1c0.3,0.1,0.6,0.1,0.9,0c0.3-0.1,0.5-0.4,0.5-0.7C91.6,45.3,83.6,34.6,71.4,31z M45.6,43.7L45.6,43.7
	c-0.6-0.2-1.3-0.3-1.9-0.3c3.6-7.8,12.9-12.3,22.7-11.3c-4.2,2-7.6,5.6-10.2,10.6c-1.3,2.5-2.1,4.9-2.6,6.6
	C51.8,46.6,49,44.6,45.6,43.7z M65.7,49.9c-1.7-0.4-3.4-0.7-4.9-0.7c-2.1,0-4,0.5-5.5,1.4c1.1-4.2,4.9-15.1,14.7-17.7
	c7.3,6.9,5.5,18.2,4.5,22.5C72.8,52.9,69.9,51,65.7,49.9z M88.1,54.7c-0.5-0.2-1.1-0.4-1.7-0.5c-3.5-0.9-7.2-0.4-10,1.3
	c0.4-1.8,0.9-4.4,0.9-7.3c0.1-5.6-1.2-10.5-3.9-14.2C82.8,37.6,88.7,45.9,88.1,54.7z"/>
<path d="M34,26.5c0-4.3-3.5-7.7-7.7-7.7s-7.7,3.5-7.7,7.7c0,4.3,3.5,7.7,7.7,7.7S34,30.7,34,26.5z M26.3,32.2
	c-3.2,0-5.7-2.6-5.7-5.7s2.6-5.7,5.7-5.7s5.7,2.6,5.7,5.7C32,29.6,29.4,32.2,26.3,32.2z"/>
<path d="M27.3,14.3v-3.2c0-0.6-0.4-1-1-1s-1,0.4-1,1v3.2c0,0.6,0.4,1,1,1S27.3,14.9,27.3,14.3z"/>
<path d="M21.3,16.4c0.1,0,0.3,0,0.4-0.1c0.5-0.2,0.7-0.8,0.5-1.3L20.9,12c-0.2-0.5-0.8-0.7-1.3-0.5c-0.5,0.2-0.7,0.8-0.5,1.3
	l1.3,2.9C20.6,16.1,20.9,16.4,21.3,16.4z"/>
<path d="M17.2,19.3c0.3,0,0.5-0.1,0.7-0.3c0.4-0.4,0.3-1-0.1-1.4l-2.4-2.2c-0.4-0.4-1-0.3-1.4,0.1c-0.4,0.4-0.3,1,0.1,1.4l2.4,2.2
	C16.8,19.2,17,19.3,17.2,19.3z"/>
<path d="M10.7,21.4c-0.2,0.5,0.1,1.1,0.6,1.3l3.1,1c0.1,0,0.2,0,0.3,0c0.4,0,0.8-0.3,1-0.7c0.2-0.5-0.1-1.1-0.6-1.3l-3.1-1
	C11.4,20.6,10.9,20.9,10.7,21.4z"/>
<path d="M11,29.1c0,0,0.1,0,0.1,0l3.2-0.3c0.6-0.1,0.9-0.5,0.9-1.1c-0.1-0.5-0.6-1-1.1-0.9l-3.2,0.3c-0.6,0.1-0.9,0.5-0.9,1.1
	C10.1,28.7,10.5,29.1,11,29.1z"/>
<path d="M12.1,34.6c0.2,0.3,0.5,0.5,0.9,0.5c0.2,0,0.3,0,0.5-0.1l2.8-1.6c0.5-0.3,0.6-0.9,0.4-1.4c-0.3-0.5-0.9-0.6-1.4-0.4
	l-2.8,1.6C12,33.5,11.8,34.2,12.1,34.6z"/>
<path d="M17.2,39.9c0.3,0,0.6-0.1,0.8-0.4l1.9-2.6c0.3-0.4,0.2-1.1-0.2-1.4c-0.4-0.3-1.1-0.2-1.4,0.2l-1.9,2.6
	c-0.3,0.4-0.2,1.1,0.2,1.4C16.8,39.8,17,39.9,17.2,39.9z"/>
<path d="M22.8,38.1l-0.7,3.2c-0.1,0.5,0.2,1.1,0.8,1.2c0.1,0,0.1,0,0.2,0c0.5,0,0.9-0.3,1-0.8l0.7-3.2c0.1-0.5-0.2-1.1-0.8-1.2
	C23.4,37.2,22.9,37.6,22.8,38.1z"/>
<path d="M28.6,37.3c-0.5,0.1-0.9,0.6-0.8,1.2l0.7,3.2c0.1,0.5,0.5,0.8,1,0.8c0.1,0,0.1,0,0.2,0c0.5-0.1,0.9-0.6,0.8-1.2l-0.7-3.2
	C29.6,37.6,29.1,37.2,28.6,37.3z"/>
<path d="M34.5,39.5c0.2,0.3,0.5,0.4,0.8,0.4c0.2,0,0.4-0.1,0.6-0.2c0.4-0.3,0.5-1,0.2-1.4l-1.9-2.6c-0.3-0.4-1-0.5-1.4-0.2
	c-0.4,0.3-0.5,1-0.2,1.4L34.5,39.5z"/>
<path d="M39.5,35.1c0.3,0,0.7-0.2,0.9-0.5c0.3-0.5,0.1-1.1-0.4-1.4l-2.8-1.6c-0.5-0.3-1.1-0.1-1.4,0.4c-0.3,0.5-0.1,1.1,0.4,1.4
	L39,35C39.2,35.1,39.4,35.1,39.5,35.1z"/>
<path d="M41.5,29.1c0.5,0,0.9-0.4,1-0.9c0.1-0.5-0.3-1-0.9-1.1l-3.2-0.3c-0.5-0.1-1,0.3-1.1,0.9c-0.1,0.5,0.3,1,0.9,1.1l3.2,0.3
	C41.4,29.1,41.5,29.1,41.5,29.1z"/>
<path d="M36.8,23c0.1,0.4,0.5,0.7,1,0.7c0.1,0,0.2,0,0.3,0l3.1-1c0.5-0.2,0.8-0.7,0.6-1.3c-0.2-0.5-0.7-0.8-1.3-0.6l-3.1,1
	C37,21.9,36.7,22.5,36.8,23z"/>
<path d="M37,15.4l-2.4,2.2c-0.4,0.4-0.4,1-0.1,1.4c0.2,0.2,0.5,0.3,0.7,0.3c0.2,0,0.5-0.1,0.7-0.3l2.4-2.2c0.4-0.4,0.4-1,0.1-1.4
	C38,15.1,37.4,15.1,37,15.4z"/>
<path d="M31.2,16.4c0.4,0,0.7-0.2,0.9-0.6l1.3-2.9c0.2-0.5,0-1.1-0.5-1.3c-0.5-0.2-1.1,0-1.3,0.5L30.3,15c-0.2,0.5,0,1.1,0.5,1.3
	C30.9,16.3,31.1,16.4,31.2,16.4z"/>
</svg>
