<svg height="479pt" viewBox="0 -15 479.99823 479" width="479pt" xmlns="http://www.w3.org/2000/svg"><path d="m40.800781 300.035156c1.347657 2.742188 4.144531 4.472656 7.199219 4.464844h160c4.417969 0 8-3.582031 8-8v-208c0-3.429688-2.179688-6.476562-5.425781-7.582031-3.242188-1.101563-6.832031-.015625-8.917969 2.699219l-160 208c-1.867188 2.414062-2.199219 5.679687-.855469 8.417968zm159.199219-188.015625v176.480469h-135.753906zm0 0"/><path d="m269.679688 48.84375c-3.375 1.023438-5.679688 4.128906-5.679688 7.65625v240c0 4.417969 3.582031 8 8 8h160c2.949219 0 5.660156-1.625 7.054688-4.226562 1.390624-2.601563 1.238281-5.757813-.398438-8.214844l-160-240c-1.957031-2.933594-5.601562-4.238282-8.976562-3.214844zm10.320312 34.054688 137.054688 205.601562h-137.054688zm0 0"/><path d="m312 256.5v-16h-16v32h32v-16zm0 0"/><path d="m168 256.5h-16v16h32v-32h-16zm0 0"/><path d="m472 320.5h-224v-304h8c4.417969 0 8-3.582031 8-8s-3.582031-8-8-8h-32c-4.417969 0-8 3.582031-8 8s3.582031 8 8 8h8v304h-224c-2.691406 0-5.199219 1.351562-6.679688 3.597656-1.480468 2.242188-1.734374 5.082032-.671874 7.554688l48 112c1.257812 2.941406 4.152343 4.847656 7.351562 4.847656h368c3.199219 0 6.089844-1.90625 7.351562-4.847656l48-112c1.058594-2.472656.804688-5.3125-.675781-7.554688-1.476562-2.246094-3.988281-3.597656-6.675781-3.597656zm-53.273438 112h-357.457031l-13.710937-32h384.878906zm20.570313-48h-398.59375l-20.566406-48h439.726562zm0 0"/></svg>