<?xml version="1.0" encoding="iso-8859-1"?>
<!-- Generator: Adobe Illustrator 19.0.0, SVG Export Plug-In . SVG Version: 6.00 Build 0)  -->
<svg version="1.1" id="Layer_1" xmlns="http://www.w3.org/2000/svg" xmlns:xlink="http://www.w3.org/1999/xlink" x="0px" y="0px"
	 viewBox="0 0 300.16 300.16" style="enable-background:new 0 0 300.16 300.16;" xml:space="preserve">
<g>
	<g>
		<g>
			<path d="M245.689,94.738L229.743,5.695H70.417L54.806,94.738H0v10.05h11.256v89.378h10.05v-5.628h15.477L16.214,294.465h267.732
				l-20.569-105.994h15.477v5.628h10.05v-89.378h11.256v-9.983H245.689z M235.706,104.788h16.549v18.425h-16.549V104.788z
				 M235.706,133.263h16.549v17.554h-16.549V133.263z M235.706,160.867h16.549v17.554h-16.549V160.867z M78.859,15.745h142.509
				l14.137,78.993H64.99L78.859,15.745z M208.705,150.817l0.134-17.554h16.884v17.554H208.705z M225.656,160.867v17.554h-17.353
				l0.201-17.554H225.656z M208.906,123.213l0.201-18.425h16.549v18.425H208.906z M181.704,150.817v-17.554h17.085l-0.201,17.554
				H181.704z M198.454,160.867l-0.201,17.554h-16.616v-17.554h0.067H198.454z M181.704,123.213v-18.425h17.353l-0.201,18.425
				H181.704z M155.105,150.817v-17.554h16.549v17.554H155.105z M171.654,160.867v17.554h-16.549v-17.554H171.654z M155.105,123.213
				v-18.425h16.549v18.425H155.105z M128.506,150.817v-17.554h16.549v17.554H128.506z M145.055,160.867v17.554h-16.549v-17.554
				H145.055z M128.506,123.213v-18.425h16.549v18.425H128.506z M101.907,150.817v-17.554h16.549v17.554H101.907z M118.456,160.867
				v17.554h-16.549v-17.554H118.456z M101.907,123.213v-18.425h16.549v18.425H101.907z M91.857,133.263v17.554h-17.42v-17.554
				H91.857z M74.437,123.213v-18.425h17.42v18.425H74.437z M74.504,160.867h17.42v17.554h-17.42V160.867z M47.905,104.788h16.549
				v18.425H47.905V104.788z M47.905,133.263h16.549v17.554H47.905V133.263z M47.905,160.867h16.549v17.554H47.905V160.867z
				 M21.306,104.788h16.549v18.425H21.306V104.788z M21.306,133.263h16.549v17.554H21.306V133.263z M21.306,178.421v-17.554h16.549
				v17.554H21.306z M271.752,284.415H28.408l18.626-95.944h206.159L271.752,284.415z M278.854,178.421h-16.549v-17.554h16.549
				V178.421z M278.854,150.817h-16.549v-17.554h16.549V150.817z M278.854,123.213h-16.549v-18.425h16.549V123.213z"/>
			<path d="M115.776,50.585c-8.71,0-15.745,7.035-15.745,15.745s7.035,15.745,15.745,15.745c8.643,0,15.745-7.035,15.745-15.745
				S124.486,50.585,115.776,50.585z M115.776,72.025c-3.149,0-5.695-2.546-5.695-5.695s2.546-5.695,5.695-5.695
				c3.082,0,5.695,2.546,5.695,5.695S118.925,72.025,115.776,72.025z"/>
		</g>
	</g>
</g>
<g>
</g>
<g>
</g>
<g>
</g>
<g>
</g>
<g>
</g>
<g>
</g>
<g>
</g>
<g>
</g>
<g>
</g>
<g>
</g>
<g>
</g>
<g>
</g>
<g>
</g>
<g>
</g>
<g>
</g>
</svg>
