<?xml version="1.0" encoding="utf-8"?>
<!-- Generator: Adobe Illustrator 23.0.1, SVG Export Plug-In . SVG Version: 6.00 Build 0)  -->
<svg version="1.1" id="Calque_1" xmlns="http://www.w3.org/2000/svg" xmlns:xlink="http://www.w3.org/1999/xlink" x="0px" y="0px"
	 viewBox="0 0 64 80" style="enable-background:new 0 0 64 80;" xml:space="preserve">
<title>children kid toy train old</title>
<path d="M10,29h8c0.6,0,1-0.4,1-1v-8c0-0.6-0.4-1-1-1h-8c-0.6,0-1,0.4-1,1v8C9,28.6,9.4,29,10,29z M11,21h6v6h-6V21z"/>
<path d="M57.2,27H53V16c0-0.6-0.4-1-1-1h-4c-0.6,0-1,0.4-1,1v11H26V17c1.7,0,3-1.3,3-3s-1.3-3-3-3H3c-0.6,0-1,0.4-1,1v33
	c0,0.6,0.4,1,1,1h3.1c0.6,4.4,4.6,7.5,9,6.9c3.6-0.5,6.4-3.3,6.9-6.9h2.1c0.6,4.4,4.6,7.5,9,6.9c3.6-0.5,6.4-3.3,6.9-6.9h2.1
	c0.6,4.4,4.6,7.5,9,6.9c3.6-0.5,6.4-3.3,6.9-6.9c2.3-0.3,4.1-2.3,4.1-4.7v-9.5C62,29.1,59.9,27,57.2,27z M49,17h2v10h-2V17z M4,13
	h22c0.6,0,1,0.4,1,1s-0.4,1-1,1H4V13z M4,17h20v27h-2.1c0-0.1,0-0.2-0.1-0.3s0-0.2,0-0.3s-0.1-0.3-0.1-0.5s0-0.2-0.1-0.3
	s-0.2-0.5-0.2-0.7v-0.1c-0.1-0.2-0.2-0.4-0.3-0.6L20.9,41c-0.1-0.1-0.2-0.3-0.2-0.4l-0.2-0.2L20.2,40L20,39.7l-0.3-0.3l-0.2-0.2
	l-0.3-0.3l-0.3-0.2l-0.3-0.2l-0.3-0.2L18,38.1l-0.3-0.2l-0.4-0.2L17,37.6l-0.4-0.2l-0.3-0.1l-0.4-0.1l-0.3-0.1L15,37.1h-0.3
	c-0.3,0-0.5,0-0.8,0s-0.5,0-0.8,0h-0.3l-0.5,0.1l-0.3,0.1l-0.4,0.1l-0.3,0.1l-0.4,0.2l-0.3,0.1l-0.4,0.2L10,38.1l-0.4,0.2l-0.3,0.2
	L9,38.7l-0.3,0.2l-0.3,0.3l-0.2,0.2L8,39.7L7.8,40l-0.3,0.3l-0.2,0.2c-0.1,0.1-0.2,0.3-0.2,0.4L7,41.2c-0.1,0.2-0.2,0.4-0.3,0.6v0.1
	c-0.1,0.2-0.2,0.5-0.2,0.7c0,0.1,0,0.2-0.1,0.3s-0.1,0.3-0.1,0.5s0,0.2-0.1,0.3s0,0.2-0.1,0.3H4V17z M14,51c-3.3,0-6-2.7-6-6
	s2.7-6,6-6s6,2.7,6,6S17.3,51,14,51z M32,51c-3.3,0-6-2.7-6-6s2.7-6,6-6s6,2.7,6,6S35.3,51,32,51z M50,51c-3.3,0-6-2.7-6-6
	s2.7-6,6-6s6,2.7,6,6S53.3,51,50,51z M60,41.2c0,1.3-0.9,2.4-2.1,2.7c0-0.1,0-0.2,0-0.3s0-0.2-0.1-0.3s-0.1-0.3-0.1-0.4
	s0-0.2-0.1-0.3s-0.1-0.3-0.2-0.5s-0.1-0.2-0.1-0.3s-0.2-0.4-0.3-0.6L57,41.1c-0.1-0.2-0.2-0.4-0.3-0.6l-0.2-0.2
	c-0.1-0.1-0.2-0.2-0.3-0.4L56,39.7l-0.3-0.3l-0.2-0.2l-0.3-0.3l-0.3-0.2l-0.3-0.2l-0.3-0.2L54,38.1l-0.3-0.2l-0.4-0.2L53,37.6
	l-0.4-0.2l-0.3-0.1l-0.4-0.1l-0.3-0.1L51,37.1h-0.2c-0.3,0-0.5,0-0.8,0s-0.5,0-0.8,0h-0.3l-0.5,0.1l-0.3,0.1l-0.4,0.1l-0.3,0.1
	L47,37.6l-0.3,0.1l-0.4,0.2L46,38.1l-0.3,0.2l-0.3,0.2L45,38.7l-0.3,0.2l-0.3,0.3l-0.2,0.2l-0.3,0.3L43.7,40l-0.3,0.3l-0.2,0.2
	c-0.1,0.1-0.2,0.3-0.2,0.4l-0.1,0.2c-0.1,0.2-0.2,0.4-0.3,0.6v0.1c-0.1,0.2-0.2,0.5-0.2,0.7c0,0.1,0,0.2-0.1,0.3s-0.1,0.3-0.1,0.5
	s0,0.2,0,0.3s0,0.2-0.1,0.3h-2.1c0-0.1,0-0.2-0.1-0.3s0-0.2,0-0.3s-0.1-0.3-0.1-0.5s0-0.2-0.1-0.3s-0.2-0.5-0.2-0.7v-0.1
	c-0.1-0.2-0.2-0.4-0.3-0.6L38.9,41c-0.1-0.1-0.2-0.3-0.2-0.4l-0.2-0.2L38.2,40L38,39.7l-0.3-0.3l-0.2-0.2l-0.3-0.3l-0.3-0.2
	l-0.3-0.2l-0.3-0.2L36,38.1l-0.3-0.2l-0.4-0.2L35,37.6l-0.4-0.2l-0.3-0.1l-0.4-0.1l-0.3-0.1L33,37.1h-0.3c-0.3,0-0.5,0-0.8,0
	c-0.3,0-0.6,0-0.9,0h-0.3l-0.5,0.1L30,37.3l-0.5,0.1l-0.3,0.1l-0.4,0.2l-0.3,0.2L28,38l-0.3,0.2l-0.4,0.2L27,38.7L26.7,39l-0.3,0.2
	l-0.3,0.3l-0.2,0.2V29h31.3c1.5,0,2.8,1.2,2.8,2.8V41.2z"/>
</svg>
