<?xml version="1.0" encoding="utf-8"?>
<!-- Generator: Adobe Illustrator 23.0.1, SVG Export Plug-In . SVG Version: 6.00 Build 0)  -->
<svg version="1.1" id="Calque_1" xmlns="http://www.w3.org/2000/svg" xmlns:xlink="http://www.w3.org/1999/xlink" x="0px" y="0px"
	 viewBox="0 0 100 125" style="enable-background:new 0 0 100 125;" xml:space="preserve">
<path d="M94.5,62.8C94.5,62.8,94.5,62.7,94.5,62.8c0-0.2,0-0.2-0.1-0.3c0,0,0,0,0,0l-0.7-1.9V23.2c0,0,0,0,0,0c0-0.1,0-0.1,0-0.2
	c0,0,0,0,0,0c0,0,0,0,0,0c0-0.1,0-0.1-0.1-0.2c0,0,0,0,0,0l-4.9-11.3c0-0.1,0.1-0.2,0.1-0.4V9.9c0-0.6-0.5-1.1-1.1-1.1
	c-0.6,0-1.1,0.5-1.1,1.1v1.3c0,0.1,0,0.3,0.1,0.4l-4.9,11.3c0,0,0,0,0,0c0,0.1,0,0.1-0.1,0.2c0,0,0,0,0,0c0,0,0,0,0,0
	c0,0.1,0,0.1,0,0.2c0,0,0,0,0,0V47h-0.9c-0.5,0-0.9,0.3-1.1,0.7L76.1,57h-12L62,51.2c-0.2-0.5-0.6-0.8-1.1-0.8
	c-0.5,0-0.9,0.3-1.1,0.8L57.8,57h-5.2l-1.7-2.2c-0.4-0.6-1.4-0.6-1.8,0L47.4,57h-5.2l-2.1-5.8c-0.2-0.5-0.6-0.8-1.1-0.8
	c-0.5,0-0.9,0.3-1.1,0.8L35.9,57h-12l-3.6-9.3c-0.2-0.4-0.6-0.7-1.1-0.7h-6.8c-0.5,0-0.9,0.3-1.1,0.7L5.6,62.5c0,0,0,0,0,0
	c0,0.1,0,0.1,0,0.2c0,0,0,0.1,0,0.1c0,0,0,0.1,0,0.1v2.4v26.3c0,0.6,0.5,1.1,1.1,1.1H25h10.9h6.2H47c0,0,0,0,0,0s0,0,0,0H53
	c0,0,0,0,0,0s0,0,0,0h4.9h6.2H75h18.3c0.6,0,1.1-0.5,1.1-1.1V65.3L94.5,62.8C94.5,62.9,94.5,62.8,94.5,62.8z M82.2,64
	c0.6,0,1.1-0.5,1.1-1.1c0,0,0,0,0-0.1c0,0,0,0,0-0.1v-4.3l0.9-0.9l0.8,0.9v4.3c0,0,0,0,0,0.1c0,0,0,0,0,0.1c0,0.6,0.5,1.1,1.1,1.1h6
	v1.2v1.6H76.1V64H82.2z M74.1,62.2c-0.1,0.2-0.2,0.4-0.2,0.6v5.4h-3.2v-3c0-0.6-0.5-1.1-1.1-1.1c-0.6,0-1.1,0.5-1.1,1.1v3h-3.2v-8
	c0-0.1,0-0.3-0.1-0.4l-0.2-0.6h10.3L74.1,62.2z M65.2,83.8h8.7v6.6h-8.7V83.8z M65.2,81.5v-11h8.7v11H65.2z M76.1,69.2h16.1v12.3
	H76.1V69.2z M90.8,22.1h-6.3l3.2-7.3L90.8,22.1z M87.7,24.9c-1.8,0-3.3,1.2-3.7,2.9v-3.5h7.5v3.5C91,26.1,89.5,24.9,87.7,24.9z
	 M89.3,28.8c0,0.9-0.7,1.6-1.6,1.6c-0.9,0-1.6-0.7-1.6-1.6c0-0.9,0.7-1.6,1.6-1.6C88.6,27.2,89.3,27.9,89.3,28.8z M83.9,29.8
	c0.5,1.7,2,2.9,3.7,2.9c1.8,0,3.3-1.2,3.7-2.9v3.2h-7.5V29.8z M83.9,35.3h7.5v19.4l-2.8-7.1c-0.2-0.4-0.6-0.7-1.1-0.7h-3.7V35.3z
	 M81.5,49.2h1.2c0,0,0,0,0,0s0,0,0,0h4l4.7,12c0,0,0,0,0,0l0.2,0.5h-4.4v-3.7c0-0.3-0.1-0.6-0.3-0.8l-2-2.1
	c-0.2-0.2-0.5-0.4-0.8-0.4c-0.3,0-0.6,0.1-0.8,0.4l-2,2.1c-0.2,0.2-0.3,0.5-0.3,0.8v3.7h-4.4L81.5,49.2z M61,54.9l1.6,4.5h-3.2
	L61,54.9z M56.8,59.8c0,0.1-0.1,0.3-0.1,0.4v2.2l-2.4-3.1H57L56.8,59.8z M43.3,60.2c0-0.1,0-0.3-0.1-0.4L43,59.3h2.7l-2.4,3.1V60.2z
	 M39,54.9l1.6,4.5h-3.2L39,54.9z M13.8,64c0.6,0,1.1-0.5,1.1-1.1c0,0,0,0,0-0.1c0,0,0,0,0-0.1v-4.3l0.8-0.9l0.9,0.9v4.3
	c0,0,0,0,0,0.1c0,0,0,0,0,0.1c0,0.6,0.5,1.1,1.1,1.1h6v2.9H7.8v-1.6V64H13.8z M34.9,59.8c0,0.1-0.1,0.3-0.1,0.4v8h-3.2v-3
	c0-0.6-0.5-1.1-1.1-1.1s-1.1,0.5-1.1,1.1v3h-3.2v-5.4c0-0.2-0.1-0.5-0.2-0.6l-1.1-2.9h10.3L34.9,59.8z M7.8,69.2h16.1v12.3H7.8V69.2
	z M26.1,70.5h8.7v11h-8.7V70.5z M34.8,83.8v6.6h-8.7v-6.6H34.8z M13.2,49.2h5.3l4.9,12.5h-4.4v-3.7c0-0.3-0.1-0.6-0.3-0.8l-2-2.1
	c-0.2-0.2-0.5-0.3-0.8-0.4c-0.3,0-0.6,0.1-0.8,0.4l-2,2.1c-0.2,0.2-0.3,0.5-0.3,0.8v3.7H8.3L13.2,49.2z M7.8,90.4v-6.6h16.1v6.6H7.8
	z M37.1,61.7H41v4v24.6h-3.9V61.7z M43.3,66.1l6.7-8.8l6.7,8.8v24.2h-2.6v-2.2c0-2.3-1.8-4.1-4.1-4.1c-2.3,0-4.1,1.8-4.1,4.1v2.2
	h-2.6V66.1z M51.8,90.4h-3.7v-2.2c0-1,0.8-1.8,1.8-1.8c1,0,1.8,0.8,1.8,1.8V90.4z M59,90.4V65.8v-4h3.9v28.7H59z M76.1,90.4v-6.6
	h16.1v6.6H76.1z"/>
<path d="M12.1,71.6c-1.6,0-2.9,1.3-2.9,2.9v4.3c0,0.6,0.5,1.1,1.1,1.1h3.6c0.6,0,1.1-0.5,1.1-1.1v-4.3C15,72.9,13.7,71.6,12.1,71.6z
	 M12.7,77.7h-1.3v-3.2c0-0.4,0.3-0.7,0.7-0.7c0.4,0,0.7,0.3,0.7,0.7V77.7z"/>
<path d="M19.6,71.6c-1.6,0-2.9,1.3-2.9,2.9v4.3c0,0.6,0.5,1.1,1.1,1.1h3.6c0.6,0,1.1-0.5,1.1-1.1v-4.3
	C22.5,72.9,21.2,71.6,19.6,71.6z M20.2,77.7h-1.3v-3.2c0-0.4,0.3-0.7,0.7-0.7c0.4,0,0.7,0.3,0.7,0.7V77.7z"/>
<path d="M87.9,71.6c-1.6,0-2.9,1.3-2.9,2.9v4.3c0,0.6,0.5,1.1,1.1,1.1h3.6c0.6,0,1.1-0.5,1.1-1.1v-4.3
	C90.9,72.9,89.5,71.6,87.9,71.6z M88.6,77.7h-1.3v-3.2c0-0.4,0.3-0.7,0.7-0.7c0.4,0,0.7,0.3,0.7,0.7V77.7z"/>
<path d="M80.4,71.6c-1.6,0-2.9,1.3-2.9,2.9v4.3c0,0.6,0.5,1.1,1.1,1.1h3.6c0.6,0,1.1-0.5,1.1-1.1v-4.3
	C83.4,72.9,82.1,71.6,80.4,71.6z M81.1,77.7h-1.3v-3.2c0-0.4,0.3-0.7,0.7-0.7c0.4,0,0.7,0.3,0.7,0.7V77.7z"/>
<path d="M86.3,36.8c-0.6,0-1.1,0.5-1.1,1.1v4.4c0,0.6,0.5,1.1,1.1,1.1c0.6,0,1.1-0.5,1.1-1.1v-4.4C87.5,37.3,87,36.8,86.3,36.8z"/>
<path d="M89,43.5c0.6,0,1.1-0.5,1.1-1.1v-4.4c0-0.6-0.5-1.1-1.1-1.1c-0.6,0-1.1,0.5-1.1,1.1v4.4C87.9,43,88.4,43.5,89,43.5z"/>
<path d="M46.3,77.9c0.6,0,1.1-0.5,1.1-1.1v-5c0-0.6-0.5-1.1-1.1-1.1c-0.6,0-1.1,0.5-1.1,1.1v5C45.2,77.4,45.7,77.9,46.3,77.9z"/>
<path d="M50,77.9c0.6,0,1.1-0.5,1.1-1.1v-5c0-0.6-0.5-1.1-1.1-1.1c-0.6,0-1.1,0.5-1.1,1.1v5C48.9,77.4,49.4,77.9,50,77.9z"/>
<path d="M53.7,77.9c0.6,0,1.1-0.5,1.1-1.1v-5c0-0.6-0.5-1.1-1.1-1.1c-0.6,0-1.1,0.5-1.1,1.1v5C52.5,77.4,53,77.9,53.7,77.9z"/>
<path d="M39,72.7c-0.6,0-1.1,0.5-1.1,1.1v2.9c0,0.6,0.5,1.1,1.1,1.1c0.6,0,1.1-0.5,1.1-1.1v-2.9C40.2,73.2,39.7,72.7,39,72.7z"/>
<path d="M61,72.7c-0.6,0-1.1,0.5-1.1,1.1v2.9c0,0.6,0.5,1.1,1.1,1.1c0.6,0,1.1-0.5,1.1-1.1v-2.9C62.1,73.2,61.6,72.7,61,72.7z"/>
</svg>
