<?xml version="1.0" encoding="utf-8"?>
<!-- Generator: Adobe Illustrator 23.0.1, SVG Export Plug-In . SVG Version: 6.00 Build 0)  -->
<svg version="1.1" id="Calque_1" xmlns="http://www.w3.org/2000/svg" xmlns:xlink="http://www.w3.org/1999/xlink" x="0px" y="0px"
	 viewBox="0 0 345 226.2" style="enable-background:new 0 0 345 226.2;" xml:space="preserve">
<style type="text/css">
	.st0{fill-rule:evenodd;clip-rule:evenodd;}
</style>
<g>
	<path class="st0" d="M335,54L286,8c-5-5-12-8-20-8c-26,0-84,0-109,0c-9,0-17,3-22,10L93,54c-3,3-7,5-11,5H45C20,59,0,79,0,104v18
		c0,21,17,30,36,30c4,16,20,29,38,29s34-13,38-29h121c5,16,20,29,38,29c19,0,34-13,39-29c18,0,35-9,35-30V76C345,68,342,60,335,54z
		 M266,15c4,0,8,1,10,4l43,40h-52l-20-44H266z M252,59h-52V15h31L252,59z M145,19c3-3,7-4,12-4h29v44h-77L145,19z M74,167
		c-14,0-25-12-25-25c0-14,11-26,25-26s25,12,25,26C99,155,88,167,74,167z M186,137h-73c-2-20-19-35-39-35s-37,15-39,35
		c-11,0-20-3-21-15v-18c1-17,14-31,31-31c47,0,94,0,141,0V137z M272,167c-14,0-26-12-26-25c0-14,12-26,26-26c13,0,25,12,25,26
		C297,155,285,167,272,167z M331,122c-1,12-10,15-20,15c-3-22-22-37-44-35c-18,2-33,17-35,35h-32V73h125c3,0,5,3,5,6L331,122z"/>
</g>
</svg>
