<?xml version="1.0" encoding="utf-8"?>
<!-- Generator: Adobe Illustrator 23.0.1, SVG Export Plug-In . SVG Version: 6.00 Build 0)  -->
<svg version="1.1" id="Calque_1" xmlns="http://www.w3.org/2000/svg" xmlns:xlink="http://www.w3.org/1999/xlink" x="0px" y="0px"
	 viewBox="0 0 100 125" style="enable-background:new 0 0 100 125;" fill="grey" xml:space="preserve">
<g>
	<path d="M50,32.4c-11.4,0-22.1,4.4-30.2,12.5c-1.6,1.6-1.6,4.2,0,5.8c1.6,1.6,4.2,1.6,5.8,0c6.5-6.5,15.2-10.1,24.4-10.1
		c9.2,0,17.9,3.6,24.4,10.1c0.8,0.8,1.8,1.2,2.9,1.2s2.1-0.4,2.9-1.2c1.6-1.6,1.6-4.2,0-5.8C72.1,36.8,61.4,32.4,50,32.4z"/>
	<path d="M93.8,32.3C82.1,20.6,66.5,14.2,50,14.2S17.9,20.6,6.2,32.3c-1.6,1.6-1.6,4.2,0,5.8c1.6,1.6,4.2,1.6,5.8,0
		C22.1,28,35.6,22.4,50,22.4S77.9,28,88,38.1c0.8,0.8,1.8,1.2,2.9,1.2s2.1-0.4,2.9-1.2C95.4,36.5,95.4,33.9,93.8,32.3z"/>
	<path d="M50.9,50.5c-6.2,0-12.1,2.4-16.5,6.8c-1.6,1.6-1.6,4.2,0,5.8c0.8,0.8,1.8,1.2,2.9,1.2s2.1-0.4,2.9-1.2
		c2.9-2.9,6.7-4.5,10.7-4.5c4.1,0,7.9,1.6,10.7,4.5c1.6,1.6,4.2,1.6,5.8,0c1.6-1.6,1.6-4.2,0-5.8C63,53,57.2,50.5,50.9,50.5z"/>
	<path d="M51,69.6c-4.5,0-8.1,3.6-8.1,8.1s3.6,8.1,8.1,8.1c4.5,0,8.1-3.6,8.1-8.1S55.4,69.6,51,69.6z"/>
</g>
</svg>
